<svg width="120" height="120" viewBox="0 0 120 120" xmlns="http://www.w3.org/2000/svg">
  <!-- Pokebola base -->
  <circle cx="60" cy="60" r="56" fill="#ffffff" stroke="#003399" stroke-width="6"></circle>

  <!-- Mitad superior azul -->
  <path d="M4 60 A56 56 0 0 1 116 60 L116 60 L4 60 Z" fill="#003399"></path>

  <!-- Banda central -->
  <rect x="4" y="54" width="112" height="12" fill="#ffffff" stroke="#003399" stroke-width="4"></rect>

  <!-- Anillo exterior del botón central -->
  <circle cx="60" cy="60" r="18" fill="#003399" stroke="#ffffff" stroke-width="4"></circle>

  <!-- Círculo interior del botón -->
  <circle cx="60" cy="60" r="10" fill="#ffffff" stroke="#003399" stroke-width="2"></circle>

  <!-- Lobo geométrico mejor definido -->
  <polygon fill="#003399" stroke="#003399" stroke-width="2" points="
    60,42 
    50,55 
    46,60 
    42,68 
    50,70 
    58,62 
    62,62 
    70,70 
    78,68 
    74,60 
    70,55
  "></polygon>

  <!-- Orejas -->
  <polygon fill="#003399" stroke="#003399" stroke-width="2" points="
    50,55 
    46,45 
    54,50
  "></polygon>
  <polygon fill="#003399" stroke="#003399" stroke-width="2" points="
    70,55 
    74,45 
    66,50
  "></polygon>

  <!-- Ojos -->
  <circle cx="52" cy="58" r="1.8" fill="#ffffff"></circle>
  <circle cx="68" cy="58" r="1.8" fill="#ffffff"></circle>
</svg>
